<?xml version="1.0" standalone="no"?>
<!DOCTYPE svg PUBLIC "-//W3C//DTD SVG 20010904//EN"
 "http://www.w3.org/TR/2001/REC-SVG-20010904/DTD/svg10.dtd">
<svg version="1.0" xmlns="http://www.w3.org/2000/svg"
 width="260.000000pt" height="260.000000pt" viewBox="0 0 260.000000 260.000000"
 preserveAspectRatio="xMidYMid meet">
<metadata>
Created by potrace 1.11, written by Peter Selinger 2001-2013
</metadata>
<g transform="translate(0.000000,260.000000) scale(0.100000,-0.100000)"
fill="#000000" stroke="none">
<path d="M1158 2595 c-2 -2 -21 -6 -43 -9 -22 -4 -53 -9 -70 -12 -16 -3 -38
-7 -47 -7 -10 -1 -18 -4 -18 -7 0 -3 -8 -7 -17 -8 -30 -3 -48 -7 -58 -13 -5
-4 -28 -12 -50 -19 -49 -14 -168 -71 -176 -83 -3 -5 -9 -8 -13 -7 -12 2 -126
-71 -126 -81 0 -6 -4 -7 -10 -4 -5 3 -10 1 -10 -4 0 -6 -4 -11 -10 -11 -41 0
-335 -332 -313 -354 4 -3 2 -6 -4 -6 -6 0 -16 -13 -23 -30 -7 -16 -17 -30 -23
-30 -6 0 -8 -3 -4 -6 3 -4 0 -19 -9 -35 -8 -16 -14 -32 -13 -35 0 -4 -4 -10
-10 -14 -6 -3 -13 -15 -15 -26 -2 -11 -11 -37 -20 -57 -8 -21 -15 -40 -15 -42
-1 -13 -14 -61 -20 -70 -3 -5 -6 -18 -7 -27 -1 -10 -2 -19 -4 -20 -2 -4 -6
-25 -14 -73 -4 -22 -9 -48 -12 -59 -5 -14 -3 -16 7 -10 11 6 12 5 2 -7 -13
-16 -14 -277 -1 -285 5 -3 6 -10 2 -15 -6 -11 7 -81 32 -164 8 -27 16 -59 18
-70 7 -32 57 -149 71 -165 7 -8 10 -21 8 -27 -3 -7 0 -13 6 -13 6 0 11 -4 11
-10 0 -5 17 -35 37 -66 21 -31 47 -70 58 -88 52 -83 278 -296 314 -296 6 0 11
-4 11 -8 0 -5 12 -15 28 -23 15 -8 29 -16 32 -19 12 -13 178 -90 193 -90 9 0
17 -4 17 -8 0 -5 6 -9 13 -10 6 0 37 -8 67 -17 30 -9 69 -19 85 -22 17 -3 38
-9 48 -14 12 -7 17 -6 17 3 0 9 3 10 8 2 10 -16 62 -24 62 -10 0 8 2 8 8 0 5
-8 52 -11 157 -8 167 4 205 7 223 18 7 4 12 5 12 2 0 -2 15 0 33 5 17 6 46 13
62 16 17 3 36 10 43 15 6 6 12 8 12 4 0 -7 84 26 169 67 36 17 70 31 74 29 5
-1 6 1 3 6 -2 4 10 14 27 22 18 7 37 19 44 24 33 29 43 36 50 36 5 0 16 8 25
18 22 23 60 52 71 52 4 0 5 5 2 10 -3 6 -2 10 4 10 13 0 71 59 71 72 0 6 3 8
6 5 7 -7 122 132 122 147 0 5 4 12 9 15 19 14 112 182 119 215 2 11 9 23 15
26 6 4 10 10 9 14 -1 4 1 17 5 29 4 12 8 27 9 32 1 6 5 17 8 25 20 56 27 84
22 91 -3 5 -1 9 3 9 5 0 10 10 10 23 1 12 5 42 9 67 10 54 10 319 1 375 -3 22
-9 54 -12 70 -4 17 -7 38 -8 48 -1 9 -4 17 -7 17 -3 0 -7 9 -8 20 -1 11 -3 29
-4 40 -1 11 -6 20 -10 20 -4 0 -8 9 -8 19 0 11 -4 23 -10 26 -5 3 -10 14 -10
23 0 21 -94 207 -115 228 -8 9 -13 19 -10 24 3 5 2 10 -3 12 -4 1 -23 23 -42
48 -19 25 -40 51 -47 58 -7 7 -13 18 -13 23 0 5 -7 9 -17 9 -9 0 -14 3 -11 6
8 7 -36 54 -51 54 -6 0 -11 6 -11 13 0 7 -12 21 -27 32 -14 11 -32 26 -40 33
-7 7 -13 11 -13 7 0 -3 -11 5 -23 19 -13 14 -27 23 -30 19 -4 -3 -7 -1 -7 5 0
6 -9 14 -20 17 -11 3 -26 13 -34 20 -12 13 -194 109 -206 110 -3 0 -18 5 -35
12 -49 19 -157 51 -195 58 -19 3 -46 8 -60 11 -28 5 -337 14 -342 9z"/>
</g>
</svg>
